# xmcd
#
# Track frame offsets: 
#        150
#        12953
#        35056
#        51492
#        77317
#        91177
#        112461
#        141443
#        176555
#        193963
#        220893
#        244662
#        258302
#        284644
#        300435
#        333454
#
# Disc length: 4740 seconds
#
# Revision: 0
# Processed by: cddbd v1.5.1PL0 Copyright (c) Steve Scherf et al.
# Submitted via: ExactAudioCopy v0.95b3
#
DISCID=f1128210
DTITLE=Muddy Waters - Screamin' And Cryin' - Live In Warsaw 1976
DYEAR=2004
DGENRE=Blues
TTITLE0=Baby Please Don't Go
TTITLE1=Soon Forgotton
TTITLE2=Corrina, Corrina
TTITLE3=After Hours
TTITLE4=Hoochie Coochie Man
TTITLE5=Junior Shuffle
TTITLE6=Howlin' Wolf
TTITLE7=Floyd's Guitar Blues
TTITLE8=Blow Wind Blow
TTITLE9=Caldonia
TTITLE10=Screamin' And Cryin'
TTITLE11=Got My Mojo Working
TTITLE12=Garbage Man
TTITLE13=J.P.'s Boogie
TTITLE14=Goin' Down Slow
TTITLE15=What's The Matter With The Mill
EXTD=
EXTT0=
EXTT1=
EXTT2=
EXTT3=
EXTT4=
EXTT5=
EXTT6=
EXTT7=
EXTT8=
EXTT9=
EXTT10=
EXTT11=
EXTT12=
EXTT13=
EXTT14=
EXTT15=
PLAYORDER=
